<?xml version="1.0"?>
<svg xmlns="http://www.w3.org/2000/svg" xmlns:xlink="http://www.w3.org/1999/xlink" version="1.1" viewBox="0 0 158 84">
  <defs>
    
    <clipPath id="clippath">
      <rect class="cls-1" y="0" width="158" height="84" rx="5" ry="5"></rect>
    </clipPath>
  </defs>
  
  <g>
    <g id="Camada_1">
      <g class="cls-2">
        <g>
          <path d="M21.7,62.8c1.6-.4,2.7-1,3.4-2,.7-1,1-2.4,1-4.3V21.3h-1.5c-1.8,0-3.4.6-4.9,1.8-1.5,1.2-2.6,2.8-3.3,4.9h-.5l2.3-8.6h.5c.2.2.6.3,1.2.5.6.1,1.3.3,2.2.4.9.1,1.8.2,2.8.3,1,0,2,0,3,0s2.1,0,3.1,0c1,0,2-.2,2.8-.3.9-.1,1.6-.3,2.2-.4.6-.1,1-.3,1.2-.5h.5l2.3,8.6h-.5c-.8-2.1-1.9-3.8-3.4-5-1.5-1.2-3.1-1.8-4.9-1.8h-1.5v35.2c0,1.9.3,3.3,1,4.3.7,1,1.8,1.7,3.3,2h0c.7.2,1,.3,1,.4s-.2,0-.6,0-.8,0-1.3,0c-.6,0-1.2,0-1.8,0-.6,0-1.2,0-1.8,0-.6,0-1.1,0-1.6,0s-.9,0-1.5,0c-.5,0-1.1,0-1.7,0-.6,0-1.2,0-1.7,0-.6,0-1,0-1.4,0v-.4h0Z"></path>
          <path d="M38.9,34.8c.6-2.1,1.4-3.9,2.4-5.5,1-1.6,2.2-3,3.6-4.2,1.4-1.2,2.9-2.2,4.5-2.9,1.6-.8,3.3-1.3,5-1.7,1.7-.4,3.4-.6,5.2-.6,2.5,0,5.1.5,7.7,1.4,2.6.9,4.9,2.3,6.9,4.1,2,1.8,3.7,4.1,5,6.9,1.3,2.8,1.9,6,1.9,9.7s-.6,7.1-1.9,9.9c-1.3,2.8-2.9,5-5,6.8-2,1.8-4.4,3.1-6.9,3.9-2.6.8-5.1,1.3-7.7,1.3s-3.4-.2-5.2-.6c-1.7-.4-3.4-1-5-1.8-1.6-.8-3.1-1.8-4.5-3-1.4-1.2-2.6-2.6-3.6-4.2-1-1.6-1.8-3.4-2.4-5.5-.6-2-.9-4.3-.9-6.8s.3-4.9.9-6.9ZM41.3,38.6c0,3.1.5,6.1,1.5,9,1,2.9,2.4,5.4,4.2,7.6,1.8,2.2,3.9,4,6.3,5.4,2.4,1.3,5.1,2,8,2s4.8-.4,6.8-1.2c2-.8,3.8-2,5.2-3.5,1.4-1.5,2.5-3.4,3.3-5.5.8-2.2,1.2-4.6,1.2-7.2s-.5-6-1.5-8.9c-1-2.9-2.4-5.5-4.2-7.7-1.8-2.2-3.9-4-6.4-5.4-2.5-1.4-5.1-2-8-2s-4.7.4-6.8,1.3c-2,.8-3.8,2-5.2,3.6-1.4,1.5-2.5,3.4-3.3,5.5-.8,2.1-1.2,4.5-1.2,7.2h0Z"></path>
          <path d="M82.8,69h-2.2l5.8-27.9,4-25.1h2.2l-5.2,25.4-4.6,27.6h0Z"></path>
          <path d="M107.5,41c2.9.4,5.1,1.4,6.6,3.1,1.5,1.7,2.2,4.1,2.2,7,0,8.1-4.1,12.1-12.3,12.1s-1.5,0-2.4-.1c-.9,0-1.8-.1-2.7-.1s-1.7,0-2.6,0c-.9,0-1.8.1-2.6.1v-.4c1.2-.3,2.1-.9,2.7-1.9.5-1,.8-2.5.8-4.4v-29.4c0-3.7-1.2-5.9-3.5-6.3v-.4c.9,0,1.9,0,2.8.1.9,0,1.8,0,2.6,0s2.2,0,3.3,0c1.1,0,2,0,2.8,0,3.3,0,5.6.7,7,2.2,1.4,1.5,2.2,3.9,2.2,7.2s-.1,2.3-.4,3.5c-.2,1.2-.6,2.3-1.2,3.3-.5,1-1.2,1.9-2.1,2.7-.8.8-1.9,1.4-3.1,1.8h0ZM104.6,62.6c2.7,0,4.6-.8,5.9-2.3,1.3-1.5,1.9-3.9,1.9-7.2s-.8-6.9-2.3-8.6c-1.5-1.8-4-2.7-7.4-2.7s-.7,0-1,0c-.3,0-.7,0-1,0,0,0,0,0,0,0v16.2c0,1.7.3,2.9.8,3.6.6.7,1.6,1,3,1h0ZM100.8,41.1s0,0,0,0c.8,0,1.6-.1,2.3-.1.7,0,1.4,0,2.1,0h.8c1-.3,1.8-.9,2.4-1.6.6-.8,1-1.6,1.4-2.6.3-1,.5-2,.6-3,0-1.1.1-2.1.1-3,0-3.4-.5-5.9-1.4-7.4-1-1.5-2.5-2.3-4.5-2.3s-2.3.3-2.9,1c-.6.7-.8,1.9-.8,3.6v15.5h0Z"></path>
          <path d="M118.9,20.4c.2,0,.5,0,1.1,0,.5,0,1.2,0,1.8,0,.7,0,1.3,0,1.9,0,.6,0,1.1,0,1.4,0s1,0,1.7,0c.8,0,1.6,0,2.6,0,1,0,2,0,3-.1,1,0,2-.2,2.9-.3.9-.1,1.7-.2,2.4-.4.7-.1,1.1-.3,1.3-.5h.3c0,.4.1,1.1.3,2,.2,1,.4,2,.7,3,.3,1.1.5,2.1.8,3,.3,1,.5,1.6.6,2h-.6c-.8-2-1.5-3.5-2.1-4.6-.6-1.1-1.3-1.9-2-2.4-.7-.5-1.6-.9-2.7-1-1-.1-2.4-.2-4-.2s-2.2.3-2.9.8c-.7.5-1,1.2-1,2v13.7c0,0,0,0,0,0h4c1.9,0,3.3-.3,4.2-1,.9-.7,1.4-1.7,1.5-3.2h.4c.1.7.2,1.5.3,2.4,0,.8.2,1.6.3,2.2.2.6.4,1.3.6,2.2.3.8.5,1.6.6,2.4h-.4c-1.6-2.9-4.1-4.3-7.6-4.3h-4.1c0,0,0,0,0,0v21.1c0,.8.3,1.5,1,2,.7.5,1.7.7,2.9.7s2.9,0,4-.2c1-.1,1.9-.4,2.7-1,.7-.5,1.4-1.3,2-2.4.6-1.1,1.3-2.6,2.1-4.6h.6c-.2.6-.4,1.4-.7,2.4-.3,1-.5,2.1-.8,3.2-.3,1.1-.5,2-.6,2.8-.2.8-.2,1.3-.2,1.6h0c0,0-.4,0-.4,0-.1-.3-.4-.5-.8-.7-.4-.2-1.1-.3-2.1-.4-1,0-2.4-.2-4.1-.2-1.8,0-4.1,0-6.9,0s-2,0-3,0c-1,0-1.9.1-2.7.1v-.4c1.3-.4,2.2-1,2.7-2,.5-1,.8-2.4.8-4.4v-29.3c0-2.1-.3-3.6-.9-4.5-.6-.9-1.6-1.5-3-1.9v-.4h0Z"></path>
        </g>
      </g>
    </g>
  </g>
</svg>